<svg width="105" height="60" xmlns="http://www.w3.org/2000/svg">
 <!-- Created with Method Draw - http://github.com/duopixel/Method-Draw/ -->

 <g>
  <title>background</title>
  <rect fill="#ffffff" id="canvas_background" height="62" width="107" y="-1" x="-1"/>
  <g display="none" overflow="visible" y="0" x="0" height="100%" width="100%" id="canvasGrid">
   <rect fill="url(#gridpattern)" stroke-width="0" y="0" x="0" height="100%" width="100%"/>
  </g>
 </g>
 <g>
  <title>Layer 1</title>
  <text stroke="#000" transform="matrix(6.672492746702133,0,0,1.7139010399208627,-64.74358513898719,1.641922483627447) " xml:space="preserve" text-anchor="start" font-family="'Shadows Into Light', serif" font-size="24" id="svg_1" y="25.0375" x="18.868124" stroke-width="0" fill="#000000"/>
  <text transform="matrix(10.074780005610199,0,0,8.322917536513073,-184.9700631670369,-276.61744552750076) " font-weight="normal" font-style="italic" stroke="#000000" xml:space="preserve" text-anchor="start" font-family="'Shadows Into Light', serif" font-size="5" id="svg_2" y="38.539708" x="18.641503" stroke-width="0" fill="#426373">DET</text>
  <path id="svg_15" d="m0.334214,44.73235" opacity="0.5" fill-opacity="null" stroke-opacity="null" stroke-width="0" stroke="#000000" fill="#426373"/>
  <path id="svg_24" d="m38.94804,44.60859c7.30197,3.5891 23.51482,1.98019 23.51482,1.98019c0,0 -4.70296,6.06435 -4.78965,6.01017c0.08669,0.05418 4.66589,0.42547 4.5792,0.37129" fill-opacity="null" stroke-opacity="null" stroke-width="0" stroke="#000000" fill="#426373"/>
  <path id="svg_30" d="m1.571842,44.60859c7.30197,3.5891 23.51482,1.98019 23.51482,1.98019c0,0 -4.70296,6.06435 -4.78965,6.01017c0.08669,0.05418 4.66589,0.42547 4.5792,0.37129" fill-opacity="null" stroke-opacity="null" stroke-width="0" stroke="#000000" fill="#426373"/>
  <path id="svg_31" d="m72.982658,44.60859c7.30197,3.5891 23.51482,1.98019 23.51482,1.98019c0,0 -4.70296,6.06435 -4.78965,6.01017c0.08669,0.05418 4.66589,0.42547 4.5792,0.37129" fill-opacity="null" stroke-opacity="null" stroke-width="0" stroke="#000000" fill="#426373"/>
  <path stroke="#000000" id="svg_38" d="m4.451808,2.651014l-0.415013,-0.744986l0.746207,0.744986l-0.746207,0.744986l0.415013,-0.744986z" fill-opacity="null" stroke-opacity="null" stroke-width="0" fill="none"/>
 </g>
</svg>